<?xml version="1.0" standalone="no"?>
<!DOCTYPE svg PUBLIC "-//W3C//DTD SVG 20010904//EN"
 "http://www.w3.org/TR/2001/REC-SVG-20010904/DTD/svg10.dtd">
<svg version="1.0" xmlns="http://www.w3.org/2000/svg"
 width="1024.000000pt" height="1024.000000pt" viewBox="0 0 1024.000000 1024.000000"
 preserveAspectRatio="xMidYMid meet">
<metadata>
Created by potrace 1.16, written by Peter Selinger 2001-2019
</metadata>
<g transform="translate(0.000000,1024.000000) scale(0.100000,-0.100000)"
fill="#000000" stroke="none">
<path d="M1520 5560 l0 -1550 1080 0 1080 0 0 -545 0 -545 648 0 647 0 55 -23
55 -22 1573 -3 1572 -2 0 25 0 25 445 0 445 0 0 1055 0 1055 50 0 50 0 0 170
0 170 -50 0 -50 0 0 240 0 240 -880 0 -880 0 0 365 0 365 -945 0 -945 0 0 265
0 265 -495 0 -495 0 0 -181 0 -181 -47 -84 -48 -84 -892 0 -891 0 -21 36 c-20
33 -21 50 -21 265 l0 229 -520 0 -520 0 0 -1550z"/>
</g>
</svg>
